HIERARCHY
ROOT Hips
{
	OFFSET 0.000000 0.000000 0.000000
	CHANNELS 6 Xposition Yposition Zposition Zrotation Yrotation Xrotation 
	JOINT LHipJoint
	{
		OFFSET 0.000000 0.000000 0.000000
		CHANNELS 3 Zrotation Yrotation Xrotation
		JOINT LeftUpLeg
		{
			OFFSET 1.363060 -1.794630 0.839290
			CHANNELS 3 Zrotation Yrotation Xrotation
			JOINT LeftLeg
			{
				OFFSET 2.448110 -6.726130 0.000000
				CHANNELS 3 Zrotation Yrotation Xrotation
				JOINT LeftFoot
				{
					OFFSET 2.562200 -7.039590 0.000000
					CHANNELS 3 Zrotation Yrotation Xrotation
					JOINT LeftToeBase
					{
						OFFSET 0.157640 -0.433110 2.322550
						CHANNELS 3 Zrotation Yrotation Xrotation
						End Site
						{
							OFFSET 0.000000 0.000000 0.000000
						}
					}
				}
			}
		}
	}
	JOINT RHipJoint
	{
		OFFSET 0.000000 0.000000 0.000000
		CHANNELS 3 Zrotation Yrotation Xrotation
		JOINT RightUpLeg
		{
			OFFSET -1.305520 -1.794630 0.839290
			CHANNELS 3 Zrotation Yrotation Xrotation
			JOINT RightLeg
			{
				OFFSET -2.542530 -6.985550 0.000000
				CHANNELS 3 Zrotation Yrotation Xrotation
				JOINT RightFoot
				{
					OFFSET -2.568260 -7.056230 0.000000
					CHANNELS 3 Zrotation Yrotation Xrotation
					JOINT RightToeBase
					{
						OFFSET -0.164730 -0.452590 2.363150
						CHANNELS 3 Zrotation Yrotation Xrotation
						End Site
						{
							OFFSET 0.000000 0.000000 0.000000
						}
					}
				}
			}
		}
	}
	JOINT LowerBack
	{
		OFFSET 0.000000 0.000000 0.000000
		CHANNELS 3 Zrotation Yrotation Xrotation
		JOINT Spine
		{
			OFFSET 0.028270 2.035590 -0.193380
			CHANNELS 3 Zrotation Yrotation Xrotation
			JOINT Spine1
			{
				OFFSET 0.056720 2.048850 -0.042750
				CHANNELS 3 Zrotation Yrotation Xrotation
				JOINT Neck
				{
					OFFSET 0.000000 0.000000 0.000000
					CHANNELS 3 Zrotation Yrotation Xrotation
					JOINT Neck1
					{
						OFFSET -0.054170 1.746240 0.172020
						CHANNELS 3 Zrotation Yrotation Xrotation
						JOINT Head
						{
							OFFSET 0.104070 1.761360 -0.123970
							CHANNELS 3 Zrotation Yrotation Xrotation
							End Site
							{
								OFFSET 0.000000 0.000000 0.000000
							}
						}
					}
				}
				JOINT LeftShoulder
				{
					OFFSET 0.000000 0.000000 0.000000
					CHANNELS 3 Zrotation Yrotation Xrotation
					JOINT LeftArm
					{
						OFFSET 3.362410 1.200890 -0.311210
						CHANNELS 3 Zrotation Yrotation Xrotation
						JOINT LeftForeArm
						{
							OFFSET 4.983000 -0.000000 -0.000000
							CHANNELS 3 Zrotation Yrotation Xrotation
							JOINT LeftHand
							{
								OFFSET 3.483560 -0.000000 -0.000000
								CHANNELS 3 Zrotation Yrotation Xrotation
								JOINT LeftFingerBase
								{
									OFFSET 0.000000 0.000000 0.000000
									CHANNELS 3 Zrotation Yrotation Xrotation
									JOINT LeftHandIndex1
									{
										OFFSET 0.715260 -0.000000 -0.000000
										CHANNELS 3 Zrotation Yrotation Xrotation
										End Site
										{
											OFFSET 0.000000 0.000000 0.000000
										}
									}
								}
								JOINT LThumb
								{
									OFFSET 0.000000 0.000000 0.000000
									CHANNELS 3 Zrotation Yrotation Xrotation
									End Site
									{
										OFFSET 0.000000 0.000000 0.000000
									}
								}
							}
						}
					}
				}
				JOINT RightShoulder
				{
					OFFSET 0.000000 0.000000 0.000000
					CHANNELS 3 Zrotation Yrotation Xrotation
					JOINT RightArm
					{
						OFFSET -3.136600 1.374050 -0.404650
						CHANNELS 3 Zrotation Yrotation Xrotation
						JOINT RightForeArm
						{
							OFFSET -5.241900 -0.000000 -0.000000
							CHANNELS 3 Zrotation Yrotation Xrotation
							JOINT RightHand
							{
								OFFSET -3.444170 -0.000000 -0.000000
								CHANNELS 3 Zrotation Yrotation Xrotation
								JOINT RightFingerBase
								{
									OFFSET 0.000000 0.000000 0.000000
									CHANNELS 3 Zrotation Yrotation Xrotation
									JOINT RightHandIndex1
									{
										OFFSET -0.622530 -0.000000 -0.000000
										CHANNELS 3 Zrotation Yrotation Xrotation
										End Site
										{
											OFFSET 0.000000 0.000000 0.000000
										}
									}
								}
								JOINT RThumb
								{
									OFFSET 0.000000 0.000000 0.000000
									CHANNELS 3 Zrotation Yrotation Xrotation
									End Site
									{
										OFFSET 0.000000 0.000000 0.000000
									}
								}
							}
						}
					}
				}
			}
		}
	}
}
MOTION
Frames: 10
Frame Time: 0.008333
-0.033886 16.057705 -13.622286 -38.386326 6.992212 95.247564 6.232359 1.080975 -3.422833 21.181406 6.878982 -98.763703 7.748938 19.135679 52.691257 -2.908427 16.456602 -24.863531 0.000000 -0.007000 -0.019200 -2.522004 -0.153510 0.025278 51.889139 2.196557 -38.443804 -4.431145 -14.049305 40.067085 7.207071 -23.607774 6.598868 -0.578600 4.871100 -13.541200 -11.729772 -2.600411 21.404021 -2.897381 -6.490201 -4.888617 1.084187 -3.263578 -10.394408 2.530999 2.331040 -38.935978 10.841737 2.538418 -0.858457 4.518500 2.470000 5.432600 2.550301 -10.864666 4.294143 22.730409 -8.250241 -22.558578 8.694539 -14.938561 -2.545347 -9.824276 -2.967418 -48.272698 58.665415 -27.414788 -50.135300 -7.125000 0.000000 0.000000 19.530300 -23.698400 -26.870600 -2.087983 10.914970 4.584356 -22.895497 -17.824554 -31.205848 -12.758373 18.135126 -3.914624 4.624193 6.492599 2.716347 -50.649661 -49.613982 48.890600 7.125000 0.000000 0.000000 -165.644200 82.869000 -167.515300 
-0.045039 16.107631 -13.755067 -38.695080 5.333089 94.452907 6.254227 1.023807 -3.425515 20.079417 6.822594 -98.098465 7.815237 19.189055 52.926197 -2.989041 16.635098 -24.729954 0.000200 -0.082200 -0.225800 -2.480388 -0.123393 -0.010068 51.534727 2.845085 -38.586598 -4.307128 -13.949378 39.501100 7.401235 -24.230711 6.838816 -0.717600 5.413400 -15.091500 -12.243772 -2.333573 21.958297 -3.060401 -6.385306 -4.821867 1.102168 -3.186117 -10.519941 3.066759 2.381161 -38.250789 10.358477 2.532933 -1.352830 4.189100 2.382500 5.144300 2.324572 -10.603495 4.246257 22.218249 -7.138533 -18.421540 8.927378 -14.905445 -2.550341 -9.521038 -3.563331 -50.032946 56.151283 -25.264799 -44.907500 -7.125000 0.000000 0.000000 18.989500 -18.887500 -25.236600 -1.727449 10.765967 4.706357 -21.291455 -17.707843 -31.668551 -12.521907 17.706736 -3.960423 4.867339 6.546246 4.599732 -50.566648 -50.762021 49.230500 7.125000 0.000000 0.000000 -171.684000 82.140600 -172.894500 
-0.057893 16.150121 -13.918760 -38.963789 3.773277 94.150643 6.297255 0.985524 -3.426662 19.262277 6.885847 -97.807319 7.858186 19.219318 53.059893 -3.193528 17.103418 -24.429630 0.016200 -0.822000 -2.259100 -2.512334 -0.106808 -0.025607 50.821320 4.406712 -38.699554 -4.020111 -13.821930 39.130746 7.138486 -22.887593 4.625555 -0.155600 2.542000 -7.006000 -12.502963 -2.124905 21.871398 -3.296728 -6.195447 -4.792095 1.005614 -3.090614 -10.380859 2.846892 2.170969 -38.260015 10.647422 2.316648 -1.268985 4.377000 2.319000 5.196800 2.016401 -10.341009 4.199035 21.534408 -6.121158 -14.169993 9.365976 -15.139896 -2.660730 -9.147282 -3.742639 -51.365858 53.648584 -24.491333 -40.802800 -7.125000 0.000000 0.000000 17.794000 -15.669700 -22.885100 -1.366414 10.508588 4.853075 -19.647230 -17.955288 -30.760790 -12.581856 17.562047 -4.018116 4.861805 6.144054 5.134039 -48.257733 -48.827993 46.071300 7.125000 0.000000 0.000000 -163.784700 84.688300 -165.332500 
-0.086148 16.209394 -14.060464 -39.565593 2.376418 93.757698 6.316345 0.962243 -3.419403 18.842766 7.278181 -97.127257 7.908310 19.231806 53.148368 -3.433240 17.641076 -24.067938 0.038800 -1.271100 -3.495100 -2.510346 -0.082896 -0.048862 50.705690 5.506462 -38.737359 -3.943035 -13.736352 38.559185 7.398594 -23.863724 5.521503 -0.212200 2.965900 -8.183700 -13.092531 -1.702301 21.825105 -3.399900 -5.764817 -4.795325 1.271476 -2.830892 -10.273722 2.375875 1.895099 -38.340084 11.230925 2.071740 -1.000371 4.730500 2.277500 5.351900 1.650501 -10.094926 4.170798 20.597302 -5.156663 -10.077859 10.108195 -15.799334 -2.943792 -8.615961 -3.986390 -52.859452 51.639241 -23.316069 -36.941800 -7.125000 0.000000 0.000000 17.004000 -12.301500 -21.074500 -1.014789 10.289205 4.920452 -18.126781 -18.183243 -30.337813 -12.649568 17.637537 -4.200429 4.918568 6.290918 5.443554 -50.296764 -50.748181 48.829000 7.125000 0.000000 0.000000 -171.100300 82.448800 -172.341400 
-0.072233 16.245086 -14.175187 -38.970849 1.420718 93.565924 6.205960 0.864465 -3.436652 19.540087 6.156511 -96.826726 7.920163 19.247256 53.148891 -3.798287 18.668723 -23.997741 0.042100 -1.324400 -3.641800 -2.490373 -0.050859 -0.111202 50.803379 5.402418 -39.963850 -3.888213 -13.712531 38.057500 7.400391 -24.427171 7.340228 -0.412300 4.121900 -11.419800 -12.351070 -1.802445 22.135500 -3.413267 -5.830990 -4.835625 1.076003 -2.859488 -10.484210 2.175018 1.646143 -38.039309 11.713078 1.809087 -0.853091 4.964700 2.195500 5.420700 1.269802 -9.845835 4.146234 19.519938 -4.275480 -5.630269 11.083208 -16.750749 -3.346311 -7.831574 -4.496134 -55.572289 49.728440 -21.287172 -32.350300 -7.125000 0.000000 0.000000 16.549700 -7.795300 -19.416000 -0.648243 10.112720 5.004143 -16.725429 -18.187175 -30.638963 -12.725276 17.679394 -4.316524 4.964283 6.200463 5.769253 -51.415691 -51.140563 50.081000 7.125000 0.000000 0.000000 -170.487600 81.734000 -171.946400 
-0.074145 16.302554 -14.259423 -38.573059 -0.035214 92.740537 6.108342 0.759663 -3.475891 19.605911 5.012615 -95.706516 7.897054 19.248141 53.075240 -4.001631 19.254933 -24.051350 0.022300 -0.964800 -2.652000 -2.423326 -0.019139 -0.154289 50.201507 4.891089 -40.474649 -3.764420 -13.610171 37.568005 7.163442 -24.059615 8.413184 -0.407300 4.097200 -11.350300 -12.324083 -1.680632 22.849606 -3.497705 -5.816900 -4.769241 1.119888 -2.824220 -10.634176 1.834452 1.390348 -37.968763 12.225894 1.543199 -0.639949 5.249100 2.120600 5.536600 0.845224 -9.727843 4.145187 18.317162 -3.917725 -3.509104 11.602417 -17.228162 -3.577989 -7.214075 -4.680498 -56.888528 47.583960 -19.508125 -28.033500 -7.125000 0.000000 0.000000 15.802300 -3.669400 -17.440500 -0.294429 9.988965 5.136366 -15.244301 -18.170930 -30.933440 -12.904163 17.748043 -4.396372 4.938062 5.755147 6.099059 -50.383954 -49.388855 48.277200 7.125000 0.000000 0.000000 -161.290400 83.513100 -163.480100 
-0.096558 16.373937 -14.388805 -38.724090 -1.721232 92.837562 6.105708 0.728580 -3.465037 19.220100 4.948208 -95.407401 7.853548 19.215138 52.921016 -4.141667 19.545746 -23.811335 0.000200 -0.095500 -0.262300 -2.427721 0.044384 -0.215953 49.363433 5.653719 -41.254658 -3.628679 -13.548436 37.086445 6.924367 -23.734231 9.439038 -0.331400 3.699900 -10.234000 -12.798276 -1.488094 22.158585 -3.600026 -5.527834 -4.807649 1.250617 -2.668080 -10.276404 1.504214 1.110240 -37.982452 12.473140 1.226816 -0.459527 5.402100 1.989500 5.645800 0.411537 -9.630513 4.134178 16.924454 -3.772515 -2.355861 12.133807 -17.792414 -3.866221 -6.832603 -4.627801 -57.819594 46.529175 -19.115665 -26.407900 -7.125000 0.000000 0.000000 15.175900 -2.317900 -16.352500 0.053873 9.882535 5.238625 -13.701052 -18.242429 -31.444169 -13.152193 17.940479 -4.532033 4.896499 5.409106 6.810072 -50.271282 -48.897593 47.806600 7.125000 0.000000 0.000000 -156.544700 84.018800 -159.037800 
-0.092841 16.427793 -14.520843 -38.388239 -2.868430 92.855900 6.036852 0.660517 -3.482477 19.748548 4.159954 -95.130666 7.790598 19.174736 52.661686 -4.527051 20.577774 -23.654920 0.055100 1.514400 4.165400 -2.424870 0.097435 -0.283822 48.883179 5.983858 -42.321149 -3.489916 -13.485231 36.577409 6.600753 -23.312396 10.792712 -0.310200 3.580700 -9.899800 -12.217228 -1.536136 21.718517 -3.697224 -5.385855 -4.814401 0.990543 -2.628552 -10.068590 1.334933 0.910339 -37.677738 12.337159 1.051440 -0.737995 5.340600 1.860600 5.496100 -0.033750 -9.580240 4.109799 15.370860 -3.766171 -1.878029 12.616912 -18.352263 -4.172462 -6.713026 -4.302900 -57.936206 46.605772 -20.154506 -27.328900 -7.125000 0.000000 0.000000 14.713100 -3.692000 -16.158000 0.498133 9.824316 5.381217 -11.609047 -18.129805 -33.256417 -13.611871 18.376446 -4.791794 4.895879 4.980343 8.865650 -50.910216 -49.353766 48.382100 7.125000 0.000000 0.000000 -157.513100 83.646400 -160.065500 
-0.095921 16.488872 -14.624518 -38.177947 -3.802910 92.365177 5.950442 0.588154 -3.519558 20.374262 3.311573 -94.272141 7.710089 19.113368 52.291549 -5.031394 21.911587 -23.452091 0.004900 0.449800 1.235900 -2.392448 0.140918 -0.325967 48.619180 5.990240 -42.830009 -3.368604 -13.382658 36.048625 6.231463 -22.891879 12.448103 -0.337900 3.735400 -10.333400 -11.651600 -1.474380 21.758697 -3.627560 -5.158853 -4.789261 0.730028 -2.540388 -10.042240 1.420023 0.977806 -37.417934 11.960341 1.154479 -1.158538 5.130400 1.837500 5.275700 -0.429704 -9.533771 4.121463 13.646965 -3.858937 -2.234292 12.998643 -18.772852 -4.394195 -6.390823 -3.930806 -56.597076 45.281230 -19.563857 -25.241900 -7.125000 0.000000 0.000000 13.934100 -1.901300 -14.828500 0.714768 9.778292 5.370607 -11.157100 -18.555949 -31.392944 -13.548230 18.355746 -4.795952 4.755590 5.130374 7.538924 -51.590897 -50.135682 49.334500 7.125000 0.000000 0.000000 -161.627900 82.876700 -164.002000 
-0.098471 16.554413 -14.715872 -38.095814 -4.976275 91.841417 5.876133 0.517681 -3.550125 20.496507 2.581499 -93.358686 7.588091 19.028370 51.809931 -5.533064 23.224017 -23.273605 0.002300 0.309400 0.850200 -2.344504 0.197185 -0.371391 48.064453 5.966723 -43.194867 -3.231650 -13.252682 35.444096 5.923528 -22.626644 13.971072 -0.368200 3.897600 -10.788700 -11.449336 -1.345388 21.830289 -3.497172 -4.915200 -4.794590 0.508902 -2.433482 -10.065132 1.553607 1.119905 -37.582609 11.658053 1.243895 -1.229560 4.960900 1.839200 5.279400 -0.777007 -9.490270 4.175699 11.798137 -4.049807 -3.421121 13.385682 -19.126929 -4.534908 -5.613856 -3.742989 -54.019456 41.835775 -15.661998 -18.266200 -7.125000 0.000000 0.000000 12.786500 5.614600 -11.778100 0.689492 9.711816 5.189124 -12.307451 -19.669597 -25.552619 -13.168226 18.149309 -4.655883 4.340204 5.894248 2.338069 -52.994452 -51.734859 51.477600 7.125000 0.000000 0.000000 -168.740700 81.062400 -170.613000 
